# xmcd
#
# Track frame offsets:
#	150
#	10702
#	24260
#	34092
#
# Disc length: 608 seconds
#
# Revision: 0
# Processed by: cddbd v1.4b41PL3 Copyright (c) Steve Scherf et al.
# Submitted via: EZCDDA 4.3.3.2
#
DISCID=1e025e04
DTITLE=Dale Watson And His Lone Stars - Single Hey Don
DYEAR=1900
DGENRE=
TTITLE0=Hey Don (Support My Favorite Beertender)
TTITLE1=Yankee Doodle Jean
TTITLE2=Ain't No Cow In Texas
TTITLE3=I Love You Two Blues
EXTD=
EXTT0=
EXTT1=
EXTT2=
EXTT3=
PLAYORDER=
